<?xml version="1.0" encoding="UTF-8" standalone="no"?>
<svg width="600" height="372" viewBox="0 0 600 372" version="1.1"
     xmlns="http://www.w3.org/2000/svg" xmlns:xlink="http://www.w3.org/1999/xlink">
  <defs>
    <linearGradient id="bg" x1="0" y1="0" x2="1" y2="1">
      <stop offset="0" stop-color="#6A7BFF"/>
      <stop offset="1" stop-color="#9A4DF0"/>
    </linearGradient>
  </defs>
  <rect x="0" y="0" width="600" height="372" rx="16" fill="url(#bg)"/>
  <circle cx="86" cy="300" r="120" fill="#ffffff" opacity="0.06"/>
  <circle cx="520" cy="70" r="90" fill="#ffffff" opacity="0.06"/>

  <g transform="translate(300 186) scale(2.25) translate(-59.5 -65)">
    <g transform="translate(-176.66182,-108.52658)"
       fill="none" stroke="#ffffff" stroke-width="6.5"
       stroke-linecap="round" stroke-linejoin="round">
      <path d="M184.17817,108.85775l47.55584,53.79268c2.33881,3.11842 0.7796,7.01644 -3.11842,7.79604l-8.57564,0.7796c-3.11842,0 -4.67762,2.33881 -4.67762,5.45723l1.55921,11.69406c0,2.33881 -1.55921,4.67762 -4.67762,5.45723l-17.15129,1.55921c-3.89802,0 -6.23683,4.67762 -3.11842,7.79604l24.16772,13.25327c0.7796,0.7796 -0.7796,5.45723 -3.11842,9.35525c-2.33881,3.89802 -6.23683,7.01644 -10.13485,9.35525l-24.94733,3.11842"/>
      <path d="M177.16182,146.27874c0,-2.33881 2.33881,-3.89802 4.67762,-3.89802c2.33881,0 4.67762,1.55921 4.67762,3.89802c0,2.33881 -2.33881,3.89802 -4.67762,3.89802c-2.33881,0 -4.67762,-1.55921 -4.67762,-3.89802z" fill="#ffffff" stroke="none"/>
      <path d="M233.2933,193.83458l62.36832,-3.89802" stroke="#FFD23F"/>
      <path d="M230.17489,215.6635l60.02951,18.7105" stroke="#FFD23F"/>
    </g>
  </g>
</svg>
