<svg xmlns="http://www.w3.org/2000/svg" xmlns:xlink="http://www.w3.org/1999/xlink" width="1920" zoomAndPan="magnify" viewBox="0 0 1440 809.999993" height="1080" preserveAspectRatio="xMidYMid meet" version="1.0"><defs><clipPath id="0c1892d9ae"><path d="M 828 292 L 868.222656 292 L 868.222656 444 L 828 444 Z M 828 292 " clip-rule="nonzero"/></clipPath></defs><path fill="#232323" d="M 681.839844 243.007812 C 650.253906 243.007812 625.226562 252.617188 607.476562 271.5625 C 575.972656 305.175781 578.902344 355.6875 579.042969 357.820312 C 579.238281 360.757812 581.761719 363.003906 584.722656 362.796875 C 587.664062 362.605469 589.898438 360.0625 589.714844 357.125 C 589.6875 356.640625 586.996094 308.996094 615.324219 278.820312 C 630.96875 262.15625 653.351562 253.699219 681.828125 253.699219 C 717.15625 253.699219 743.324219 268.371094 757.519531 296.125 C 775.820312 331.902344 770.402344 381.957031 754.085938 404.507812 C 747.472656 413.652344 740.742188 422.359375 734.230469 430.777344 C 713.425781 457.6875 693.773438 483.097656 687.042969 512.296875 C 683.15625 529.183594 670.304688 544.253906 653.507812 551.617188 C 637.976562 558.421875 621.105469 557.800781 607.234375 549.890625 C 596.21875 543.613281 583.050781 530.222656 582.867188 502.0625 C 582.847656 499.121094 580.453125 496.746094 577.519531 496.746094 L 577.484375 496.746094 C 574.535156 496.765625 572.148438 499.175781 572.167969 502.125 C 572.269531 517.15625 576.257812 544.550781 601.933594 559.171875 C 611.074219 564.375 621.253906 567 631.628906 567 C 640.378906 567 649.269531 565.136719 657.804688 561.398438 C 677.941406 552.570312 692.769531 535.109375 697.476562 514.691406 C 703.671875 487.78125 721.757812 464.394531 742.703125 437.316406 C 749.261719 428.832031 756.054688 420.050781 762.761719 410.769531 C 781.265625 385.183594 787.398438 331.058594 767.050781 291.257812 C 755.792969 269.242188 731.871094 243.007812 681.828125 243.007812 Z M 681.839844 243.007812 " fill-opacity="1" fill-rule="nonzero"/><path fill="#232323" d="M 631.628906 412.742188 C 628.195312 415.21875 624.679688 416.703125 621.273438 418.128906 C 613.21875 421.523438 604.078125 425.382812 603.867188 441.777344 C 603.714844 453.015625 607.207031 462.828125 613.710938 469.410156 C 618.710938 474.484375 625.207031 477.273438 631.980469 477.273438 C 644.992188 477.273438 651.125 468.195312 655.171875 462.195312 C 655.902344 461.109375 656.589844 460.089844 657.25 459.210938 C 661.386719 453.691406 666.082031 447.441406 677.238281 441.507812 C 690.292969 434.5625 702.820312 414.226562 695.117188 379.769531 C 689.085938 352.765625 665.246094 338.597656 645.675781 340.488281 C 642.734375 340.773438 640.582031 343.378906 640.871094 346.320312 C 641.160156 349.257812 643.757812 351.410156 646.707031 351.125 C 659.328125 349.917969 679.453125 358.707031 684.667969 382.09375 C 690.644531 408.867188 682.710938 426.484375 672.199219 432.066406 C 658.9375 439.117188 653.007812 447.015625 648.675781 452.792969 C 647.859375 453.886719 647.058594 455.066406 646.28125 456.207031 C 641.929688 462.660156 638.78125 466.574219 631.953125 466.574219 C 628.011719 466.574219 624.324219 464.949219 621.300781 461.890625 C 616.828125 457.355469 614.425781 450.261719 614.535156 441.90625 C 614.667969 432.503906 617.8125 431.167969 625.410156 427.96875 C 629.179688 426.382812 633.449219 424.585938 637.863281 421.402344 C 642.792969 417.863281 645.722656 413.300781 646.597656 407.867188 C 647.933594 399.519531 644.40625 389.960938 635.515625 377.773438 C 627.453125 366.730469 625.671875 354.324219 629.132812 333.523438 C 632.492188 313.382812 650.4375 293 678.238281 293 C 707.550781 293 725.230469 317.121094 729.488281 332.316406 C 734.304688 349.492188 729.5625 368.074219 729.46875 368.425781 C 728.707031 371.285156 730.40625 374.203125 733.265625 374.964844 C 736.121094 375.726562 739.046875 374.027344 739.808594 371.171875 C 740.039062 370.300781 745.429688 349.566406 739.789062 329.433594 C 733.386719 306.585938 709.640625 282.308594 678.230469 282.308594 C 644.480469 282.308594 622.675781 307.1875 618.574219 331.769531 C 614.628906 355.445312 617.023438 370.597656 626.859375 384.078125 C 633.761719 393.546875 636.851562 400.984375 636.019531 406.1875 C 635.601562 408.785156 634.199219 410.871094 631.601562 412.734375 Z M 631.628906 412.742188 " fill-opacity="1" fill-rule="nonzero"/><path fill="#232323" d="M 800.910156 323.378906 C 798.824219 325.464844 798.824219 328.851562 800.910156 330.9375 C 821.390625 351.402344 821.390625 384.710938 800.910156 405.183594 C 798.824219 407.273438 798.824219 410.65625 800.910156 412.742188 C 801.949219 413.789062 803.324219 414.308594 804.695312 414.308594 C 806.070312 414.308594 807.433594 413.789062 808.484375 412.742188 C 833.136719 388.105469 833.136719 348.015625 808.484375 323.378906 C 806.394531 321.292969 803.007812 321.292969 800.921875 323.378906 Z M 800.910156 323.378906 " fill-opacity="1" fill-rule="nonzero"/><g clip-path="url(#0c1892d9ae)"><path fill="#232323" d="M 837.480469 294.390625 C 835.390625 292.304688 832.003906 292.304688 829.917969 294.390625 C 827.828125 296.476562 827.828125 299.863281 829.917969 301.949219 C 847.585938 319.605469 857.320312 343.082031 857.320312 368.054688 C 857.320312 393.027344 847.585938 416.507812 829.917969 434.164062 C 827.828125 436.25 827.828125 439.636719 829.917969 441.722656 C 830.957031 442.769531 832.332031 443.289062 833.703125 443.289062 C 835.078125 443.289062 836.441406 442.769531 837.488281 441.722656 C 857.179688 422.042969 868.027344 395.882812 868.027344 368.054688 C 868.027344 340.226562 857.179688 314.070312 837.488281 294.390625 Z M 837.480469 294.390625 " fill-opacity="1" fill-rule="nonzero"/></g></svg>